<?xml version="1.0" encoding="utf-8"?>
<!-- Generator: Adobe Illustrator 21.1.0, SVG Export Plug-In . SVG Version: 6.00 Build 0)  -->
<svg version="1.1" id="Layer_1" xmlns="http://www.w3.org/2000/svg" xmlns:xlink="http://www.w3.org/1999/xlink" x="0px" y="0px"
	 viewBox="0 0 1000 1000" style="enable-background:new 0 0 1000 1000;" xml:space="preserve">
<style type="text/css">
	.st0{fill:#FFFFFF;}
	.st1{fill:none;stroke:#000000;stroke-width:2.7639;stroke-miterlimit:10;}
</style>
<g>
	<g>
		<path d="M567.6,945c-19.4-5.7-39.5-9.8-58-17.5c-17.6-7.4-33.6-18.7-50.5-28.1c-3.5-1.9-7.5-3.8-11.3-3.8
			c-41.4-0.4-82.9-0.4-124.3-0.6c-15.1-0.1-30.3-1.6-45.3-0.1c-8.3,0.8-16,6.5-24.1,10c-8.7,3.8-17.4,10.8-26.1,10.8
			c-44.5-0.3-88.9-2.3-133.4-3.8c-15.3-0.5-26.6-8.4-32.2-21.8c-5.3-12.7-10.6-26.6-10.8-40.1c-1-83.2-0.7-166.5-0.4-249.8
			c0.1-33.3,1.2-66.7,2.7-100c0.7-16.3,2.6-32.7,5.4-48.8c3.3-18.8,16.7-31.8,28.8-45.6c24.8-28.3,58.1-32.4,92.7-35.6
			c60.4-5.6,120.5-13.2,180.8-19.7c11-1.2,22-1.1,33.1-1.6c14.5-0.6,28.7-2.2,39.3-13.6c2.4-2.6,4.4-6.4,4.9-9.9
			c6.9-48.6,4.2-97.5,5.4-146.3c0.3-11.7,3.8-23.6,7.7-34.7c10.4-29.2,16.9-59.9,34.1-86.7c10.2-15.9,24.5-23.8,41.8-24.2
			c44.9-1,89.8-0.7,134.7-0.3c30.3,0.3,45.1,11,54.7,40.1c7.4,22.3,13,45.1,20,67.5c10.8,34.8,10,70.9,12.2,106.7
			c1.7,28.2,2.4,56.4,3.5,84.2c5.3,3,10.8,6,14.8,8.2c9.2-1.2,17.9-4.4,25.6-2.8c26.9,5.6,54,11.5,80,20.1
			c20.5,6.8,23.1,13.5,18.7,35c-1.9,9.2,1.7,13.9,6.4,20.8c6.7,9.8,14.1,21.8,14.5,33c2.1,69.4,3.7,138.9,2.9,208.4
			c-0.7,60.7-4.5,121.4-7.8,182c-1.7,31.2-27.8,54.1-59.1,54.4c-32.1,0.3-64.2-1.3-96.3-1.3c-5.6,0-12.3,2.5-16.6,6.1
			c-32.8,27.8-70,44.4-113,47.9c-2,0.2-3.9,1-5.9,1.6C600.7,945,584.2,945,567.6,945z M787.8,575.4c2.3,7.3,4.5,14.7,6.8,22
			c1.3-0.5,2.7-1.1,4-1.6c-5-6.1,2.5-17.7-11-20.1c-3.8-7.5-6.7-15.8-11.6-22.5c-9.1-12.3-19.1-24-29.3-35.5
			c-6.7-7.6-15.2-8.3-21.8-1.9c24.1,13.2,39.7,34.6,55.9,55.5C782.4,573.2,785.4,574,787.8,575.4z M64.1,518.3
			c-1.3,40.7-3.6,82.4-3.6,124.1c0,69,1.4,138.1,2.4,207.1C63.1,863,66,867.9,79,871.3c36.8,9.6,73.9,16.6,112.3,13.4
			c9.2-0.8,17.5-4.1,21.1-12.7c4.5-10.7,9.2-21.9,10.5-33.2c1.8-16.7,1.4-33.8,0.7-50.7c-1.9-45.1-5-90.2-6.6-135.3
			c-1.2-35.2-0.8-70.4-1.2-105.7c-0.2-16.4-2.5-18.4-18-17.6c-2.7,0.2-5.5-0.1-8.3-0.3c-19.6-1.6-39.1-3.1-58.7-4.8
			C108.9,522.5,87,520.4,64.1,518.3z M782.5,533.5c-4-13-7.3-23.7-10.7-34.3c-5.4-16.7-9.1-34.3-17-49.8
			c-8.5-16.7-21.1-31.2-31.5-47c-8-12.2-15.5-18.6-32.9-13.4c-41,12.3-83.8,12-126.3,9.1c-23.6-1.6-47-5.6-70.6-8.3
			c-2.6-0.3-6.2-0.8-7.8,0.6c-11.4,9.4-24.9,17.4-33,29.2c-23.7,34.6-39.6,73.1-47.5,114.5c-0.8,4-0.4,10,2,12.4
			c4.7,4.7,9.9,2.6,15.3-1.9c43.5-36.9,91.3-65.2,149.5-71.1c45.3-4.6,88.7,2.2,128.8,24.2c8.4,4.6,14.7,6.7,23.2,0.6
			c3.5-2.5,10.7-3.7,14-1.8c8.3,4.7,15.6,11.4,23,17.7C767.7,519.8,774,525.8,782.5,533.5z M594.3,931
			c115.9-0.4,209.7-93.4,209.7-209c0-115.5-93-208.6-209.6-209.1C480,512.3,383.7,608.1,384.5,722
			C385.3,836.8,479.1,930.9,594.3,931z M713.7,360.1c-0.4,0.8-0.8,1.6-1.2,2.5c2.7,3.9,5.2,8,8.2,11.6c17.7,21.3,40.2,39,49.1,66.9
			c11.8,37,24.4,73.8,36.6,110.8c0.6,1.9,0.3,4.1,0.5,6.2c2.1,19.5,4.2,39,6.5,58.4c0.2,1.5,1.2,2.9,2.1,5c2.4-1.4,4.1-2.5,5.8-3.4
			c14.8-7.5,46.2,3.4,46.6,26.1c0.4,21.4-0.7,42.8-1,64.2c-0.1,7.3-3.1,10.3-10.7,10.4c-9.6,0.1-19.2,1.6-28.8,2.7
			c-5.9,0.7-9.3,3.6-8.9,10.3c1.9,31.9-9.7,60.9-19.9,90.1c-1,2.9-0.3,6.4-0.4,9.6c2.9-1.1,6.6-1.4,8.6-3.4
			c25.7-24.5,50.8-49.8,76.9-73.9c13.4-12.3,25.5-24.1,20.5-44.5c-0.1-0.3,0.1-0.7,0.1-1c0.7-39,1.1-78,2.3-116.9
			c0.3-9.7-3.9-11.5-12-11.6c-21.1-0.1-42.1-0.8-63.1-0.9c-7.9,0-11.6-3.1-11.2-11.1c0.3-7.6,1.5-15.2,0.7-22.7
			c-2.2-20.5,2.2-41.5-5.7-61.5c-7.2-18.1-12.4-36.9-20.4-54.6c-11.2-24.7-23.9-48.7-36.4-72.7c-2.4-4.5-7.1-7.9-11.2-12.2
			C737.6,355,728.4,363.3,713.7,360.1z M224.6,390.7c-0.1,0.8-0.2,1.7-0.3,2.5c3.1,1.3,6.3,2.3,9.2,4c10.2,6,22,10.7,30.2,18.8
			c17.2,17.1,24.7,39.1,26.9,63.3c1.5,16.4,5.7,18.9,21.9,17.2c9.9-1,20-3,29.8-1.9c20.6,2.4,33.4-5.9,39.9-25.7
			c7.7-23.7,16.8-47,25.6-70.3c3.1-8.1,1.5-13.6-7-14.3c-15.8-1.3-31.9-2-47.7-1.2c-19.2,1-38.3,4-57.5,5.9
			c-22.1,2.1-44.3,7.9-66.6,0.4C227.8,389,226.1,390.2,224.6,390.7z M315,509.7c0,115.3,0,230.9,0,346c13.9,6.5,24.4-1,34.4-8.1
			c3.1-2.2,6-7.7,5.6-11.4c-2.2-21.2-4.9-42.4-8.3-63.4c-11-69-10.4-138-1.8-207.1c2.3-18.3,5-36.6,7.7-56
			C339.3,509.7,326.8,509.7,315,509.7z M698.8,372.8c-4-28.9-21.2-40.8-45.8-41.7c-23.4-0.8-46.8,0.8-70.2,1.3
			c-23.8,0.5-47.6,1.1-71.4,1.2c-5.6,0-8.9,1.6-10.9,7c-2.7,7.3-6.1,14.3-9.1,21.5c-2.8,6.8-0.9,11.7,6.7,12.9
			c15.6,2.6,31.2,6.5,46.9,6.8c36.5,0.7,73,0.3,109.5-1.2C669.3,380,684,375.5,698.8,372.8z M211,376.9c-18.2,2-35.1,2.6-51.5,6
			c-14.9,3-30.8,6.4-43.5,14.2c-35.4,21.9-50.7,55.8-50.4,96.8c0,2.5,3,6.6,5.3,7.2c13.2,3.3,26.5,7.8,39.9,8.2
			c41.2,0.9,82.2,10.9,123.5,4.3c10.3-1.6,21.4-5.7,29.5-12c14.7-11.5,11.5-29.8,7.6-44.1c-6.4-23.5-18.1-45.1-46.2-50.1
			c-1.6-0.3-3.1-1.4-4.7-2.2C204.8,397.3,204.2,395.7,211,376.9z M674.2,249.8c1.3-0.1,2.3-0.5,3.6-0.8c-4-13.9-4.9-29.8-12.6-41.2
			c-10.7-16.1-29-24.4-48.8-25.6c-15.5-0.9-31.2-1.1-46.5,0.8c-9.7,1.2-20.3,5-28,10.9c-7.7,6-14.1,15.2-17.7,24.4
			c-4.2,10.5-5.2,22.4-7,33.8c-1.6,10.2-2.3,20.6-3.5,30.9c1.5,0.4,2.9,0.8,4.4,1.2c-4.2-1.1,0.3-18.4,0.9-21
			c2-9.1,3.6-17.7,14.4-18.6c22.3-1.9,44.7-2.7,67.1-2.6c14.7,0.1,29.3-1.3,44-1.5C653.7,240.3,669.1,239.7,674.2,249.8z
			 M519.6,71.4c0,14.5-0.1,29.6,0,44.6c0.1,8.3,3.9,12.8,12.8,12.2c11-0.7,22-1.3,33-1.7c35.7-1,71.4-1.9,107.2-2.9c0.3,0,0.7,0,1,0
			c8.9,0.2,11.1-6.4,11.1-12.9c0-13.7-1.2-27.3-2-41c-0.1-2.2-0.9-4.4-1-5C628.1,67.1,575.4,69.1,519.6,71.4z M904.3,471.9
			c-0.5-5.6-1-11.7-1.5-17.8c-1-13.4-5.5-24.6-15.3-34.8c-9.7-10-19.4-17-33.6-19.5c-20-3.5-39.7-9.3-57.7-13.7
			c8.5,19.9,17.5,40.5,26.1,61.3c3.9,9.5,6.9,19.3,11,28.7c1,2.3,5,5.1,7.3,4.9C861.5,478.4,882.3,475.2,904.3,471.9z M481.9,345.4
			c-7.6,0-15.9-0.4-24,0.1c-7.3,0.5-15.1,1-21.8,3.6c-11.1,4.3-18.6,18.8-17.4,26.6c1.4,9.1,3.2,19.3,0.6,27.6
			c-8.6,27.9-19,55.2-29,82.6c-0.9,2.6-3.2,4.9-5.2,6.9c-9.9,9.9-24.8,16.8-20.7,35.5c5.6-1.6,11.2-3.1,16.8-4.7
			c8.7-2.4,14.5-7.9,16.5-16.8c6.2-28,19.8-52.8,32.6-78.1c9.4-18.6,21.7-34.3,39.9-44.8c2.6-1.5,5.9-3.8,6.4-6.3
			C478.9,367,480.3,356,481.9,345.4z M496.4,117.5c-2.2-0.3-3-0.7-3.5-0.5c-1.2,0.6-2.7,1.2-3.2,2.3c-9.8,21.2-25.6,40.2-27.2,64.4
			c-2.6,41-3.8,82-5.3,123.1c-0.1,3.9,1.9,7.9,3.6,14.6c2.8-4.5,4.6-6,4.7-7.7c1.8-20.9,3.8-41.9,5-62.8
			c2.5-43.9,5.3-87.6,24.9-128.1C496.2,121.3,496.1,119.6,496.4,117.5z M724,318.6c1.6,0,3.2,0,4.9,0.1c0.6-4.5,1.7-8.9,1.7-13.4
			c-0.1-28.2-0.3-56.5-1-84.7c-0.2-9.9,0.2-20.5-3.2-29.6c-6.7-18.1-15.5-35.3-23.9-52.7c-1.5-3-5-5.1-7.6-7.6
			c-0.9,0.6-1.9,1.2-2.8,1.8c0.6,3.5,0.6,7.2,1.7,10.5c6.2,18.9,13.5,37.5,18.9,56.6c9.7,34.5,10.2,70.1,9.6,105.6
			C722.4,309.6,723.4,314.1,724,318.6z M671.8,324.1c0.2-1.3,0.4-2.6,0.6-3.9c-5.3-1-10.6-2.6-15.9-2.9c-21.7-1.5-43.3-3.5-65-3.8
			c-27.2-0.4-54.6-2.8-81.3,5c-2,0.6-3.5,2.6-7.3,5.6C561.2,324.1,616.5,324.1,671.8,324.1z M629.4,267.4c-0.1-1.1-0.1-2.3-0.2-3.4
			c-33.5,0-67,0-98.5,0c-4,15.8-7.5,29.4-11.1,43.6c2.1-0.3,4.3,0,5.2-0.9c10-10.8,23.2-11.1,36.3-11.3c23.1-0.3,46.2-0.7,69.3,0
			c12.7,0.4,26.1-0.9,37,8.6c3.3-10.4-0.5-29.3-6.4-33.3c2.8,20.2,2.2,21.3-16.5,21.4c-34.8,0.2-69.6,0.2-104.4-0.2
			c-2.4,0-6.3-3.2-7-5.6c-4-13.8,0.9-19.3,15.2-18.8c20,0.7,40,1.4,60,1.6C615.4,269.3,622.4,268,629.4,267.4z M603.1,155.7
			c21,0.3,42,0.4,63.1,0c3.3-0.1,6.5-3,9.7-4.6c-3.1-1.9-6.1-5.5-9.3-5.6c-42-0.6-84-0.8-126-0.7c-3.5,0-6.9,3.5-10.4,5.4
			c3.6,1.5,7.2,4.2,10.9,4.3C561.8,154.9,582.5,155.4,603.1,155.7z M786.8,348.1c-0.1,0.9-0.2,1.9-0.3,2.8c1,0.9,1.8,2.2,2.9,2.5
			c26.6,7.9,53.2,15.9,80,23.2c2.5,0.7,6.2-2.9,11.7-5.6c-30-8.7-56.3-16.6-82.6-23.9C794.9,346.1,790.7,347.7,786.8,348.1z
			 M414.4,563.2c-5-1.5-9.1-3.4-13.4-3.6c-2.5-0.1-7.1,2.1-7.4,3.9c-3.2,18.4-5.8,37-8.4,55.5c0,0.1,1.1,0.3-0.1,0
			C394.9,600.3,404.5,582,414.4,563.2z M253.7,372.1c8,9.6,16.2,7.1,25.1,5c13.5-3.2,27.5-4.5,41.2-6.7c8.3-1.3,16.6-2.7,24.9-4
			c-0.2-1.2-0.4-2.4-0.6-3.6C314,365.8,283.9,369,253.7,372.1z M654.2,170.6c0.1-1.1,0.2-2.2,0.3-3.4c-1.1-0.6-2.1-1.9-3.2-1.8
			c-18,0.2-36,0.3-54,0.5c-8.8,0.1-17.6,0.2-26.4,0.4c-7.7,0.1-16-1.3-23.2,1.6c-1.3,0.5,0.9,2.4,1.2,2.7c1.1,0.9,6,0,7.5,0
			c4.8,0,9.7,0,14.5,0c9.4,0,18.9,0,28.3,0C617.6,170.6,635.9,170.6,654.2,170.6z M624.8,486.4c-10-1-19.3-1.9-28.8-2.9
			c-1.1,5.3-1.8,9.2-2.8,14.2c10.9,0,21,0,31.6,0C624.8,494.1,624.8,490.8,624.8,486.4z M634.1,488.4c-2.8,7.5-1.7,12.6,8.1,13.8
			c6.7,0.8,13.1,3.3,19.6,5c3.8-9.9,1.8-16.3-5.3-17.1C649.2,489.3,641.7,489,634.1,488.4z M585,483.7c-19.4-3.2-30,3.1-26.2,15.6
			c4.9-0.3,10-1.3,15-0.9C584.9,499.3,587.6,494.1,585,483.7z M407.7,356.5c-18.9,1.9-37.7,3.8-56.5,5.7c16.1,2.1,32.1,2.8,48,3.6
			C405.1,366,409.6,364.9,407.7,356.5z M671.3,500c1.8,12,8.6,17.1,25.5,19.6C696.3,508.4,687.1,501.1,671.3,500z M726.8,539.9
			c2.1-11-3-15.9-19.5-21.4C708.2,531.1,720,531.7,726.8,539.9z M531.7,505c18.8-3.4,20.7-5.3,15-15.7
			C543,496,528.7,491.2,531.7,505z M522.2,495.5c-5.9,3.8-10.8,6.7-15.3,10.1c-1.1,0.8-1.3,3.5-0.9,5.1c0.3,1.1,2.3,2.4,3.6,2.5
			C517.8,513.7,523.7,506.2,522.2,495.5z M775.7,589.2c4.1-16.1-9.9-17.6-14-25.7c-1,0.7-2,1.3-3,2
			C763.9,572.6,769,579.8,775.7,589.2z M737.3,535.3c-1.8,14.3,6.8,18.2,13.2,23.6c1.1-0.8,2.2-1.6,3.3-2.4
			C748.8,550.1,743.9,543.7,737.3,535.3z M482.3,522.2c0.8,0.7,1.6,1.4,2.3,2c14.1-5.1,14.1-5.1,9-14.8
			C489.5,514,485.9,518.1,482.3,522.2z M475.5,528.7c-1.1-1.1-2.1-2.2-3.2-3.3c-5.5,4.8-11,9.6-16.6,14.4c0.9,0.9,1.8,1.9,2.7,2.8
			C464.1,538,469.8,533.3,475.5,528.7z"/>
		<path class="st0" d="M671.8,324.1c-55.3,0-110.6,0-169,0c3.8-3,5.4-5,7.3-5.6c26.7-7.8,54.1-5.4,81.3-5c21.7,0.3,43.4,2.3,65,3.8
			c5.4,0.4,10.6,1.9,15.9,2.9C672.2,321.5,672,322.8,671.8,324.1z"/>
		<path class="st0" d="M786.8,348.1c3.9-0.4,8.1-2,11.6-1c26.4,7.3,52.6,15.1,82.6,23.9c-5.5,2.8-9.1,6.3-11.7,5.6
			c-26.8-7.3-53.3-15.3-80-23.2c-1.1-0.3-1.9-1.6-2.9-2.5C786.6,349.9,786.7,349,786.8,348.1z"/>
		<path class="st0" d="M253.7,372.1c30.2-3.1,60.3-6.3,90.5-9.4c0.2,1.2,0.4,2.4,0.6,3.6c-8.3,1.3-16.6,2.7-24.9,4
			c-13.8,2.2-27.7,3.5-41.2,6.7C269.8,379.2,261.7,381.7,253.7,372.1z"/>
		<path class="st0" d="M624.8,486.4c0,4.4,0,7.8,0,11.3c-10.6,0-20.7,0-31.6,0c1-5,1.8-8.9,2.8-14.2
			C605.5,484.4,614.8,485.4,624.8,486.4z"/>
		<path class="st0" d="M634.1,488.4c7.6,0.5,15,0.9,22.4,1.7c7.1,0.8,9.1,7.2,5.3,17.1c-6.5-1.7-12.9-4.2-19.6-5
			C632.4,501,631.4,495.9,634.1,488.4z"/>
		<path class="st0" d="M585,483.7c2.5,10.4-0.2,15.6-11.2,14.7c-5-0.4-10.1,0.6-15,0.9C555,486.8,565.6,480.5,585,483.7z"/>
		<path class="st0" d="M407.7,356.5c1.9,8.4-2.6,9.5-8.5,9.2c-16-0.7-31.9-1.5-48-3.6C370,360.3,388.8,358.4,407.7,356.5z"/>
		<path class="st0" d="M671.3,500c15.8,1.2,25,8.5,25.5,19.6C679.9,517.1,673,512,671.3,500z"/>
		<path class="st0" d="M726.8,539.9c-6.7-8.2-18.6-8.8-19.5-21.4C723.8,523.9,728.9,528.9,726.8,539.9z"/>
		<path class="st0" d="M531.7,505c-3.1-13.8,11.3-9.1,15-15.7C552.5,499.7,550.5,501.7,531.7,505z"/>
		<path class="st0" d="M522.2,495.5c1.5,10.7-4.5,18.2-12.6,17.7c-1.3-0.1-3.4-1.4-3.6-2.5c-0.4-1.6-0.1-4.3,0.9-5.1
			C511.4,502.2,516.3,499.4,522.2,495.5z"/>
		<path class="st0" d="M775.7,589.2c-6.7-9.3-11.8-16.5-16.9-23.7c1-0.7,2-1.3,3-2C765.8,571.6,779.8,573.1,775.7,589.2z"/>
		<path class="st0" d="M737.3,535.3c6.5,8.4,11.5,14.8,16.5,21.2c-1.1,0.8-2.2,1.6-3.3,2.4C744.1,553.5,735.5,549.6,737.3,535.3z"/>
		<path class="st0" d="M482.3,522.2c3.6-4.1,7.3-8.2,11.4-12.8c5.1,9.7,5,9.7-9,14.8C483.8,523.6,483,522.9,482.3,522.2z"/>
		<path class="st0" d="M787.6,575.6c13.5,2.4,5.9,14,11,20.1c-1.3,0.5-2.7,1.1-4,1.6c-2.3-7.3-4.5-14.7-6.8-22
			C787.8,575.4,787.6,575.6,787.6,575.6z"/>
		<path class="st0" d="M475.5,528.7c-5.7,4.7-11.4,9.3-17.1,14c-0.9-0.9-1.8-1.9-2.7-2.8c5.5-4.8,11-9.6,16.6-14.4
			C473.4,526.5,474.5,527.6,475.5,528.7z"/>
		<path d="M158.6,867.5c-16.8-1.9-36-3.8-55.2-6.2c-17.6-2.2-24.6-10-25.4-27.7c-2-48.9-3.9-97.9-6-146.8
			c-2-47.9-4.4-95.8-6.3-143.7c-0.4-11.2,4.1-14.8,13.3-12.7c6.8,1.6,9,6.2,8,12.4c-7.3,46.7,0,93,4.2,139.4
			c3.1,34.6,6.3,69.3,10.8,103.7c1.6,11.7,7.2,23,11.6,34.2c4.5,11.3,13.3,18.6,25,21.4c13.6,3.3,27.5,5.9,41.3,8.4
			c5.7,1.1,12.6,2,11.2,8.9c-0.7,3.5-7.2,7.3-11.7,8.4C173.8,868.6,167.3,867.5,158.6,867.5z"/>
		<path d="M193.9,674.9c-0.9-3.2-2.3-6.4-2.6-9.7c-1.8-18.2-2.8-36.5-4.9-54.6c-4-33.4-25-51.6-55.8-60.3
			c-9.7-2.7-19.6-4.9-31.2-7.8c7.8-8.1,17.1-8,24.7-7.4c17.1,1.3,34.1,4.8,51.1,7.5c7.5,1.2,12.8,5.3,14.3,13
			c1.4,7.4,2.6,14.9,3.2,22.5c2.2,28.9,4.2,57.7,6,86.6c0.2,3.3-0.8,6.7-1.2,10.1C196.1,674.8,195,674.9,193.9,674.9z"/>
		<path d="M513.5,411.1c61.6,6.3,124,0.6,185-10.5c1.4-0.3,2.9-0.5,4.2,0.2c1.1,0.5,1.7,1.6,2.3,2.7c5.7,9.6,11.6,19.1,17.3,28.7
			c3.2,5.4,7.5,10.4,9.9,16.3c1.7,3.3,11.7,18.1,7.1,20.9c-1.5,0.9-3.4-0.1-4.8-1.1c-8.9-6.3-17.4-10.5-27.8-13.9
			c-11.8-3.8-23.9-6.4-36.1-8.5c-23.9-4.1-46.7-7.1-71-5c-15.5,1.3-30.8,4.1-45.8,7.9c-14.8,3.7-32.8,7.8-45.5,16.5
			c-14.2,9.6-27.8,20.2-41.9,30c-7.1,4.9-14.2,9.7-21.3,14.5c-3.5,2.3-7.2,5.6-11,7.3c-2.8,1.2-5.9,1.4-8.7,2.5
			c-0.4-3.6-2.1-7.5-1.1-10.7c6.5-21,11.1-42.3,23.3-61.5c5.3-8.4,12-17,20.2-22.8c7.4-5.2,14.5-13,23.9-14.6
			c4.4-0.8,8.9-0.2,13.3,0.4C507.8,410.5,510.7,410.8,513.5,411.1z"/>
		<path d="M702.1,399.2c4,2.8,10.5,4.9,13.1,9.4c12.6,21.6,24.3,43.8,35.9,66.1c0.9,1.7-1.7,5.1-2.6,7.8c-2.7-1.6-6.3-2.6-7.9-4.9
			c-5.7-8.6-10-18.1-16-26.4c-13.7-18.7-33.6-25.2-55.8-26.5c-2.7-0.2-5.7,0-8.1-1c-1.8-0.8-3.6-3.1-4-5.1c-0.3-1.4,1.5-4.2,3-4.7
			C673.1,408.8,686.8,404.3,702.1,399.2z"/>
		<path d="M594,921.7c-105.9,0.4-188-81.9-188.2-188.7c-0.2-105.9,81.5-188.2,187.3-188.5c107-0.3,189.6,81.2,189.7,187
			C782.9,839.9,702.1,921.4,594,921.7z M413.5,733.3c0,99.3,81.4,180.8,180.7,180.9c99.8,0.1,180.7-81.1,181-181.7
			c0.2-98.9-81.5-180.2-181.3-180.2C494.7,552.2,413.6,633.6,413.5,733.3z"/>
		<path d="M78.2,469.7c0.3-28.4,13.2-43.6,40.5-51.3c19.7-5.6,39.6-5.3,59.5-3.4c12.8,1.2,25.8,2.9,38.3,6c7,1.7,14.2,5.7,19.8,10.4
			c22.3,18.8,14.7,48.1-8,59.3c-16.1,7.9-33.8,10.5-52.1,9.4c-18.6-1-37.3,0.3-55.8-0.8c-9.1-0.5-18.4-2.9-26.8-6.4
			C83,488.6,75.2,481.2,78.2,469.7z"/>
		<path class="st0" d="M594.4,863.9c72.8-0.2,126.9-54.5,127-127.4c0-71.9-54.9-126.8-126.6-126.5c-74.2,0.3-127.7,54.4-127.5,128.8
			C467.5,809.6,522.9,864.1,594.4,863.9z"/>
		<path d="M594.4,863.9c-71.5,0.2-126.9-54.3-127.1-125.1c-0.2-74.5,53.3-128.5,127.5-128.8c71.7-0.3,126.7,54.6,126.6,126.5
			C721.4,809.4,667.3,863.7,594.4,863.9z M595.7,639.7c-54.3,3.2-91.6,38.5-91.6,92.2c0,53.9,37.3,91.6,91.5,91.6
			c53.3,0.1,91.4-36.7,91.6-91.5C687.3,678.8,650.3,643,595.7,639.7z"/>
		<path d="M595.5,811c-43.6-0.1-79.3-35.4-79.3-78.7c-0.1-43.8,35.8-79.8,79.4-79.7c43.8,0.1,79.4,35.9,79.2,79.8
			C674.7,775.7,639,811.1,595.5,811z M537,723.8c0.5,30.6,23.8,60.5,57.9,61.3c34,0.8,61.4-27,61.8-59.5
			c0.4-37.8-30.2-61.1-58.3-61.8c-17.3-0.4-34.4,7-46.1,19.7C541.4,695.2,536.7,709.5,537,723.8z"/>
		<path class="st0" d="M596.8,773.4c26.3,0.1,49.8-23.5,49.4-49.6c-0.4-26-23.5-48.6-49.5-48.5c-26.3,0.2-48.8,22.3-49.4,48.5
			C546.8,749.8,570.3,773.4,596.8,773.4z"/>
		<path d="M596.8,773.4c-26.5-0.1-50.1-23.7-49.5-49.5c0.6-26.3,23.1-48.4,49.4-48.5c26-0.2,49,22.5,49.5,48.5
			C646.7,750,623.2,773.5,596.8,773.4z"/>
	</g>
	<circle class="st1" cx="593.2" cy="735.9" r="141.6"/>
	<circle class="st0" cx="588.4" cy="704.8" r="4.8"/>
	<path d="M668,85.8l-138.4,5.8c-0.9,0-1.7-0.7-1.7-1.6l-0.2-5.9c0-0.9,0.7-1.7,1.6-1.7l138.4-5.8c0.9,0,1.7,0.7,1.7,1.6l0.2,5.9
		C669.6,84.9,668.9,85.7,668,85.8z"/>
	<path d="M668.6,99.6l-138.4,5.8c-0.9,0-1.7-0.7-1.7-1.6l-0.2-5.9c0-0.9,0.7-1.7,1.6-1.7l138.4-5.8c0.9,0,1.7,0.7,1.7,1.6l0.2,5.9
		C670.2,98.7,669.5,99.5,668.6,99.6z"/>
	<path d="M669.2,113.4l-138.4,5.8c-0.9,0-1.7-0.7-1.7-1.6l-0.2-5.9c0-0.9,0.7-1.7,1.6-1.7l138.4-5.8c0.9,0,1.7,0.7,1.7,1.6l0.2,5.9
		C670.8,112.6,670.1,113.3,669.2,113.4z"/>
	<path class="st0" d="M147.6,477.2h-41.1c-4,0-7.2-3.3-7.2-7.2v-25.6c0-4,3.3-7.2,7.2-7.2h41.1c4,0,7.2,3.3,7.2,7.2V470
		C154.9,473.9,151.6,477.2,147.6,477.2z"/>
	<circle cx="304.5" cy="426.4" r="16.2"/>
	<circle cx="514.3" cy="348.4" r="8.1"/>
	<path class="st0" d="M821.5,700.9c0.1,1.2,0.2,2.3,0.3,3.5c6.2-3,11.5-9,14.5-15.2c1.5-3.3,2.2-6.8,2.6-10.4
		c1.7-17.5-10.4-32.9-26.5-38.8c-0.8-0.3-1.7-0.6-2.5-0.2c-1.1,0.6,3.3,11.2,3.9,13c1.5,5.2,2.7,10.5,3.7,15.8
		C819.3,679.3,820.5,690.1,821.5,700.9z"/>
</g>
</svg>
