<svg id="Layer_1" data-name="Layer 1" xmlns="http://www.w3.org/2000/svg" viewBox="0 0 1000 1000"><title>peacock-feather</title><path d="M832.7,264.2l12.6-11.89L844,251c-3.64,2.89-7.25,5.82-10.93,8.67-5.68,4.4-6.9,4.62-12.6,2.47l14.72-12.9C825.27,253,819.41,264,806,262.78l20.77-18.3-1.08-1.16c-6.5,4.91-12.76,10.18-19.57,14.6-4.15,2.69-9,5.07-13.81,5.82a194.35,194.35,0,0,0-53.71,16.47,27.45,27.45,0,0,1-3.92,1.2,11.9,11.9,0,0,1,5.74-4.87c17.39-7.1,34.78-14.19,52.24-21.1,12.63-5,24.71-10.64,34.23-20.87,2.31-2.49,6.16-3.9,9.56-5,7.08-2.18,14.33-3.78,23-6-2.19-.59-2.77-.94-3.31-.87-6.68.83-13.33,1.89-20,2.49-1.79.16-3.7-1.06-5.63-1.68-2,1.27-4.55,3.82-7.55,4.64a329,329,0,0,0-93.59,42c-1.19.78-2.45,1.83-3.75,2a5.07,5.07,0,0,1-3.61-1.47c-.41-.41.19-2.23.78-3.11a15.73,15.73,0,0,1,3.05-3c31.05-26,66-44.44,105.56-53.72l21.94-5.16-.5-1.53c-47.47,7.82-92.12,22.68-130.55,53.18,32.61-29.83,72.8-44.43,114-57.27-16.33,3.93-32.54,8.13-48.13,14s-30.92,12.11-45.18,20.31-26.72,18.86-40,28.46a17.08,17.08,0,0,1,4.29-6.68A180.63,180.63,0,0,1,762,219.67a412.11,412.11,0,0,0,49.19-24.58c7.65-4.54,14.49-9.47,23.66-9.73a17.7,17.7,0,0,0,3.46-.79l-.18-.63H824.48c1.65-6.19,6.65-11.91,1.44-18.65-5.43,18.69-5.39,18.88-25.17,22.82a218.94,218.94,0,0,0-55,18.64c-24.18,12-44.32,29.07-61.44,49.84-2,2.41-3.74,5.41-8.67,3,32.17-39.12,73.49-64.58,118-85.8a2.41,2.41,0,0,0-2-.22c-7.65,3.4-15.38,6.65-22.92,10.29-38.2,18.45-74.08,40.08-101.11,73.86-1.18,1.47-3.19,2.27-6.14,4.3,4.45-12.25,9.32-21.19,19.64-27.45,21.18-12.85,41.22-27.64,57.08-46.87,7.87-9.54,15.71-18,27.94-21.39.22-.06.31-.62.82-1.74L751.8,169.5,756,157.73l-1.57-1.08c-4.37,13.41-15.53,18.56-26.55,24.79-16.31,9.21-31.58,20.25-47.27,30.57-2.47,1.63-4.77,3.52-7.24,5.37-4.63-9.56.8-25.23,10.12-30.52,5.36-3,10.9-5.75,16.36-8.6l-.58-1.32-18.6,8.17c5.11-18.78,8.59-36.24,2.61-55.07a16,16,0,0,0-.71,2.73,32.23,32.23,0,0,0,.19,4.28c2.24,17.41-2.1,33.7-8.82,49.46-3.57,8.37-13.49,10.95-21,6.16-2.15-1.38-4.51-2.42-6.78-3.62l-.58,1.12,9.81,8.36-49.54,44.22-6.34-10-1.34.71c.87,2.63,2.47,5.27,2.43,7.89-.06,4,0,9-2.13,11.93-19.31,26-34.65,54-44.87,84.69-2.07,6.22-6.67,8.09-12.6,8.95-1.53-7,.67-12.67,3.94-18.31,11.65-20.09,22.61-40.57,21.41-64.8-.54-10.94.23-21.13,7.4-30,.07-.09-.32-.56-.69-1.17l-7.71,10.22-18.71-25.37L545,218.72c2.17,3.59,4.66,7,6.44,10.79C557.29,242,560,253.77,553.68,268c-7,15.65-10.18,33-15.07,49.62-1.32,4.47-1.91,9.48-4.39,13.21-6.54,9.86-13.65,19.39-21.12,28.58-2.95,3.63-7.42,6-11.2,9L500.76,367c1.44-2.45,2.86-4.92,4.32-7.35,12.07-20,22.54-40.77,28.53-63.53,3.89-14.78,5.86-29.76,1.9-44.75-1.69-6.41-5.1-12.36-7.73-18.53l-1.69.73a5.12,5.12,0,0,0,.1,1.69c9.12,21.34,6.7,42.77.22,64.12-8.28,27.28-22,51.89-38.24,75.08-2.89,4.12-7.74,6.86-11.69,10.24l-1.4-1.12c1.67-3.4,3.38-6.78,5-10.2,11.71-24.41,21.36-49.52,25.66-76.42,2.67-16.75,3.62-33.63-3.13-49.5-4-9.31-6.17-18.14-4.58-28.2.62-3.89-1-8.14-1.59-12.22l-2.08.26-1.19,20.55L486,223.33c1.77,4.13,5.13,8.09,4.33,10.84-2.41,8.25-6.43,16-10.35,25.2-3.51-4.05-5.85-6.81-8.25-9.51-18.7-21.07-52.1-23.41-72.19-5.06-12,11-15.68,30.62-7.57,44.28-2-11.64-1.49-22.14,4.69-31.51,9.14-13.86,22.61-20.17,38.73-19.2,16.79,1,29.63,9.85,38.37,24.15,1,1.66.31,5.17-.78,7.18-3.43,6.27-7.69,12.07-11.15,18.32-16,28.91-17,60-13.08,91.8,1.25,10-3,21.85-10.41,28.08,0-5.13.65-10.72-.11-16.09-3.08-21.59-6.29-43.18-10.07-64.66-3-16.95-6.34-33.81-2.77-51,1.09-5.24,3.31-10.25,5.26-16.13-6.33,2.59-8.74,7.48-10.55,12.63a69.78,69.78,0,0,0-3.14,35.08c3.25,19.12,7.55,38.05,10.94,57.15a155.12,155.12,0,0,1,.34,51.86c-.69,4.34-1.82,8.59-6,9.7,1-15.68,2.73-31.27,2.8-46.87.07-13.81-7.76-37.32-15.54-41.42,2.53,7.67,6.28,16,7.94,24.65,4.36,22.75.33,45-4.91,67.26-2.24,9.5-9.58,13.94-16,19.68a14.1,14.1,0,0,1,.16-5c2-11.86,5-23.66,5.83-35.6,1.55-23.34-1-46-16.23-65.41-8-10.14-18.26-16.81-30.28-21a30.22,30.22,0,0,0-5.35-.87,14.62,14.62,0,0,0,6.31,4.35,56.83,56.83,0,0,1,26.44,22.91c3.58,5.76,2.86,7.7-3.91,10.47-5.75-12.87-9.65-28.7-29.66-22.54-9.31,2.87-16.12,13.33-14.54,22.91,1.37-3.13,2.27-5.32,3.29-7.45,3.29-6.87,8.88-10.84,16.35-11.17,6.69-.3,10.8,4.29,13.77,9.7a86.59,86.59,0,0,1,4.16,9.53c1.56,3.88,1,7.19-1.64,10.76a127.62,127.62,0,0,0-20.35,42.29,237.68,237.68,0,0,0-7.12,83.19c.66,7.65-.38,14.1-7.81,19.19,0-2.28,0-4,0-5.74.3-10.41,1.24-20.84.81-31.21-.81-19.51-3.84-38.6-13.77-56-8.25-14.45-23.16-23.37-37.53-21.54A15.68,15.68,0,0,0,288,402.9c22.2,6.14,32.18,22.81,37.87,43.43,5.81,21.05,4.55,42.48,4.48,63.94,0,14.73-7.69,24.91-18.13,35.92,1-3.53,1.56-5.47,2.14-7.39,6.4-21.42,11.16-43,9.25-65.67-2-23.57-16.59-41.25-38.58-45.53-14.37-2.79-26.16,1.94-32.19,12.94-6.25,11.4-3.88,29,5.16,38.34,7.12,7.33,20,8,26.31,1.2a5.91,5.91,0,0,0-1.79-.28c-16.61,3-24.23-2.17-27.15-18.43-3-16.87,8.68-30.31,24.77-28.06,17.33,2.43,30,11.47,34.47,28.74a98.75,98.75,0,0,1,2.81,29.63c-1.27,23.25-8.12,45.35-16.53,67-1.49,3.83-3.6,7.41-6,12.24-.64-2.15-1-2.73-.94-3.24,2.63-18.38-4.92-34.95-9.47-52-2.15-8.05-7.4-13.91-15.85-16.12,7.24,5.49,13,11.8,14,21.62-7.42-7-16.13-10.34-26-11.28-4.6-.44-9.12-1.63-12.87-2.33-.79,1-1.56,3.11-2.81,3.45-14.45,4-21,19.74-18.66,34.51.69,4.35,2.48,8.53,3.77,12.79l1.92-.61c-.3-1.3-.54-2.61-.89-3.89a38.79,38.79,0,0,1,1.16-24.67c2.61-6.83,7.23-11.8,14.55-13.78,3.29-.89,6-.62,7.41,3.16,2.94,7.81,6.88,15.35,8.92,23.38,6.46,25.43,4.82,51.06.38,76.61-.55,3.16-2.09,6.15-3.17,9.22l-1.84-.3c-1.16-13-1.94-26.09-9.44-37.51-6.22-9.48-23.74-21.52-32-19.82,15.16,4.69,26.34,13.34,33.27,27S253.94,632,247.84,639c-4.37-26.24-11.72-39.47-24-43.17a3.91,3.91,0,0,0,.45,1.1,9.13,9.13,0,0,0,1.32,1.27C239,609.32,244.66,624,244.32,641c-.08,4.17-2.53,8.29-3.89,12.44l-2.23-.54c-.27-5-.08-10.14-.94-15.06a46.41,46.41,0,0,0-4.38-13.93c-2.2-4.08-5.92-7.33-9-10.95l-1.3,1.22c16.43,21.72,18.14,43.18,4.62,58.18-.16-.34-.47-.69-.44-1,.13-1.42.42-2.82.53-4.24.9-11.12-.62-21.77-7.82-30.69-7.57-9.38-20.95-7.65-26.35,3.16-2.4,4.8-1.65,9.28,1.8,13.2a9.62,9.62,0,0,0,0-4.21c-.9-7.1,1.95-12,8.44-14.54,5.51-2.17,11-.46,14.85,5.28a28,28,0,0,1,4.23,9.4c3.33,15.3,1.87,30.05-6,43.88-4.14,7.28-8.28,14.57-12.36,21.89-25.37,45.56-49,92-69.25,140.07-1,2.35-1.14,5.05-1.68,7.59h7.36c.72-1.91,1.29-3.9,2.2-5.73,19.87-40.09,39.52-80.3,59.77-120.2,10.21-20.11,27.13-33.65,47.43-42.6,14.2-6.26,29-7.2,43,1.33,7.69,4.7,9.26,13,3.7,20-2.53,3.19-6.27,6.29-10,7.35-3.5,1-7.78-.81-11.72-1.37,2.15,2.21,4.72,4.29,7.58,4.82,6.32,1.17,14.94-4.89,18.31-12.16,3.27-7.07,2-13.62-3.65-19-6.16-5.8-13.84-7.66-21.94-8.14-16.78-1-31.14,5.41-44.41,14.93-2.49,1.79-4.87,3.73-7.27,5.62-2.23,1.76-4.43,3.55-7.93,6.37,5.16-11.35,13.33-17.25,21.65-22.82,17.46-11.66,36.6-18,57.49-13,11.61,2.74,22.74,7.84,33.77,12.61,15,6.51,29.83,13.4,46.21,15.89,8.85,1.35,14.09.8,19.74-2.92-13.36,3.78-25.29.4-36.73-3.78-14.17-5.19-27.87-11.67-41.74-17.66-28.26-12.2-55.24-10.75-80.7,7.41-2.82,2-5.66,4-8.5,6,1.05-3.38,2.37-6.4,4.65-8.24,23.3-18.74,49.37-28.73,79.67-23.57,10,1.71,19.85,4.74,29.81,6.91,2.42.53,5.06.08,7.59.08-56.28-16.69-66.37-16.11-112.18,7.44,2.39-3.13,4.88-6.29,8-8.5,18-12.61,37.21-23.05,58.07-30.05,24.08-8.08,48.28-10.42,72.27.62,3.2,1.48,6.31,3.17,9.46,4.76a16.2,16.2,0,0,0-5.9-5.36c-16.62-10-34.71-11.24-53.31-8.41-27,4.11-50.92,15.91-73.75,30.29-1.62,1-3.31,1.93-5,2.89l-1.07-1.28c2.22-2.17,4.2-4.67,6.69-6.46,23.73-17.12,49-31.18,77.9-37.45,27.74-6,54.85-5,80.18,9.73a33.36,33.36,0,0,0,3.5,1.42c-1-1.42-1.19-2-1.62-2.32-1.34-.93-2.73-1.8-4.14-2.61-20.71-11.9-43-15.11-66.32-11.37-28.87,4.63-55.09,16.36-80,31.29-1.73,1-3.5,2-5.26,3L254.67,646c4.33-4.17,8.34-8.76,13.09-12.4s10-6.35,15.19-9.19c43.8-23.94,89.57-32.34,138.21-17.06,3.06,1,6.72,2,8.64,4.28,10.59,12.46,19.12,26.12,20.58,43,.85,9.79-4.48,17.89-12.61,20.06-7.27,1.95-12.56-2.09-12.63-9.63,0-1.49,0-3,0-4.48l-1.77-1a17.79,17.79,0,0,1-.81,2.36c-3.94,7.85,1.65,17,10.78,17.64,11,.75,20.57-8.56,21.4-20.77,1-14.25-5.23-26.17-12.33-37.8-1.07-1.76-2.1-3.54-3.14-5.32a17.29,17.29,0,0,1,7.58,2.33c10.44,5.61,20.7,11.58,31.32,16.8,10.91,5.36,22.44,9.17,34.84,7.84,5-.53,9.78-2.45,14.67-3.73l-.41-1.62c-13.12,4.75-26.55,4.55-38.85-1.2-22.78-10.66-46.52-19.93-65-38.08a141.09,141.09,0,0,0-12.3-10.11c-1.22-1-2.79-1.45-5-2.56,16.93-7.82,19.53-13.2,30.93,14.26,2.35-10.83-4.36-17.19-9.87-24.14l12.21-10.54,7,19.8,1.46-.45c-1.32-6.54-3.1-13-3.75-19.63-.3-3,1.64-6.26,2.56-9.4,2.37,1.21,5.36,1.87,7,3.73,5.7,6.51,10.92,13.44,16.61,20.56-3.86-13.39-10.37-25.14-22.05-32.11-9.75-5.82-19.17-11.85-28.5-18.35-18.07-12.59-38.23-11.28-58.19-4.38-8,2.77-15.69,6.47-23.52,9.74l-.63-1.83c21-15.73,45.67-21,71.49-22.29,26.47-1.34,50.53,6.37,72.55,20.83-31.86-28-68.77-31.17-108.26-21.95,21.63-9.25,43.9-14.4,67.36-10.4,31.85,5.43,53.37,25.12,69,52.07,3,5.16,4.5,11.41,5.62,17.35,1.39,7.34-2.72,14.29-8.37,16.08-6.21,2-12.31-1-16.26-7.83-.67-1.16-1.31-2.33-2.5-4.46a18,18,0,0,0-.54,3.41,12.45,12.45,0,0,0,.72,3c2.74,7.67,10.37,12.7,18.06,11.94,7.53-.74,14.26-6.73,14.43-15,.15-7.36-.29-15.51-3.28-22C506,528.43,488,509.53,462.49,499c-28.16-11.69-56.38-8.89-84.26,1.73-5.44,2.07-10.79,4.37-16.17,6.57l-.87-1.46c2.79-2.12,5.31-4.85,8.42-6.28a275.24,275.24,0,0,1,84.76-23.3c10.8-1.2,22.14-2.69,32,4.49,5.44,4,11.24,7.51,16.31,11.91s9.19,9.45,13.74,14.22l1.92-1.9-28-28.06c17.59,1.47,32.44,8.56,47.17,16-13-10.7-28.07-16.44-44.29-19.68-7.78-1.55-15.7-2.86-23.15-5.46A90.8,90.8,0,0,0,417,465.08c-7,1.76-14,4.05-20.93,6.1l-1-1.66c4.71-2.86,9.07-7,14.18-8.36q25.07-6.77,50.59-11.81c15.11-3,30.09-3.09,43.33,7.06,6.81,5.21,14.62,9.25,20.85,15,16.59,15.42,32.16,32,49,47.1,7.24,6.51,10.77,12.21,5.54,21.17-.19.33.28,1,.83,2.82l7.65-9.73c10.14,3.61,19.62,8.22,29.61,10.23,11.62,2.33,23.52-4.93,25.3-13.29-17.83,11.45-29.72,11.32-47.33-1-2.11-1.48-4.19-4.78-4.17-7.21a52.78,52.78,0,0,0-7.19-28.14c-17.35-29.14-43.86-44.85-76.52-51-9.19-1.72-18.86-1.34-27.83-3.74-11.77-3.15-23.45-5.38-35.63-4.87-1.81.08-3.63-.15-5.45-.24l-.24-1.81c3.12-1.26,6.13-3,9.36-3.71,19.51-4,39-3.09,58.37,1,17.64,3.75,33.35,12.13,49.17,20.24,22.92,11.74,47.34,15,72.66,12.77,10.38-.91,10.83-1.07,15.92,8.09a35.26,35.26,0,0,1,3.13,7.3c2.66,9.29-1.41,18.57-9.51,22.19-9,4-18.64.94-23.94-7.6-.86-1.38-1.77-2.72-3.34-5.12,0,10.11,4.8,17,12.63,19.66,16.3,5.59,34.18-9.5,30.59-26.35-1.49-7-5-13.57-7.68-20.7,5.35-1,11-7.07,16.53,1.81-3.6-8.37,5-7.24,7.89-11.5-3,.56-5.16,1.11-7.32,1.29-1.28.1-3.36,0-3.8-.71-3.65-6.19-7-12.56-10.84-19.58,3.81,0,6.44,0,9.06,0,11.61-.08,23.22-.28,34.83-.21,4.8,0,9.73,0,14.37,1.08,30.68,6.94,59.19.95,86.32-13.88a1.15,1.15,0,0,0,.49-.78c-12.82,3.5-25.77,7.8-39.05,10.46C740,430.24,726.15,430,710.93,427l9.39-5.27c-16.66,3.45-30.23.81-38.81-8.06,39-3.88,90.13-17.72,100.09-27.46-1.77.62-2.91,1-4,1.41-22.69,9.56-46,17.27-70.56,19.73-12.11,1.21-25,2.54-36.53-.35-14.48-3.65-27.88-11.57-41.75-17.65,23.43,4.48,46.49,1.57,69.4-3.08,11.27-2.29,21.91-.88,32.5,2.84,2,.7,4,1.45,5.93,2.18l.78-1.51-12.26-7.65.18-1.78c16.46-.81,32.92-2.23,49.38-2.26a115.79,115.79,0,0,1,47.66,10.52,19.94,19.94,0,0,0-5.87-4.3c-24.22-12.66-50.26-13.33-76.56-11.05-12.38,1.07-24.59,4.41-37,5.1-16.07.9-32.23.31-48.36.16-22.62-.21-42.63-6.87-58-24.33a50.91,50.91,0,0,1-4-6l1.55-1.19a36.18,36.18,0,0,1,4.51,4.3,56,56,0,0,0,26.3,19.31A97.48,97.48,0,0,0,672,375.88c12.73-1.7,25.31-4.52,38-6.7,20.7-3.57,41.52-6.5,62.09-10.67,22.11-4.49,44.05-5.53,66.3-1.48,8,1.46,13.24,5.83,16.85,12.73,1.77,3.37,3.52,6.76,5.68,10.92,2.81-7.23-6.83-11.72-3.07-17.57C834.23,337.79,805,331.68,770.52,342c14-7.25,26.52-13.48,38.77-20.28,5.14-2.85,9.35-3.12,14,.52,3.63,2.83,7.6,5.21,11.41,7.8l.92-1.22-14.14-14.44-16.74-6c11.09-10.38,17-12.17,29-9.42s20.75,14.3,22.77,29.69q.9,6.83,1.78,13.65c1.58-25-2.24-46.65-34.34-49.59l.75-1.65,6.75-4.9-1.12-1.78c-8.39,10-20.83,10.3-31.61,14.58-3.61,1.43-7.08,3.2-10.68,4.64-2.46,1-5,2.13-7.57,2.35-13.46,1.16-25.88,5.62-38,11.35-3,1.43-6.22,2.43-10,3.87.55-5.64,3.3-7.51,7.47-8.64,29.51-8,56.39-21.46,81.33-39.12a18.33,18.33,0,0,1,12.39-2.91c9.41,1.6,18.58,4.62,27.84,7.08,1.54.41,3.06.86,4.59,1.29l.69-2.27Zm-13.83-30.51,1,2.24c-18,13.08-39.45,18.53-60,25.94l-.9-1.6ZM675.34,225.1c18.38-18.19,39.68-32.37,62.3-44.74-18.29,20.54-40,36.77-63.08,51.38l-1.76-1.07C673.63,228.8,674,226.45,675.34,225.1ZM557.78,264.22l2,.57c-.21,16.46-6.24,31.22-13.1,45.75l-1.92-.55ZM288.56,544.15c.19,18.4,4.08,36.21-11.15,50.31Zm99.55,39.06c-39.69-3.36-75.36,8-108.64,29.58C286.14,590.13,367,567.94,388.11,583.21ZM251.77,515.33c17.49-1.9,33.93,10.54,32.61,24.54A266.37,266.37,0,0,1,280,570.7c-2.3,10.74-5.75,21.25-8.93,31.79-.83,2.77-2.5,5.28-3.79,7.91l-1.59-.25C269.56,577.28,269.66,545,251.77,515.33ZM421.22,603.6c-26.17-6.91-52.42-8.77-79-3.89s-50.83,16-73.73,30.22L267.16,628c3.21-3,6.05-6.58,9.7-8.89,24-15.23,49.13-27.94,77.92-30.87,11.34-1.15,23.06.64,34.24-1.17C404.28,584.65,412,594.71,421.22,603.6ZM397.47,580c-33.31-13.56-64.45-6.31-94.91,9q-4.38,2.2-8.81,4.3c-.3.14-.75,0-2.6-.22,3.62-4,6-8.39,9.78-10.53,34.78-20,70.9-29.28,109.78-11.84,2.37,1.07,4.61,2.44,8.55,4.54C411.35,579,404.78,583,397.47,580Zm25.45-36.45c5.34.83,14.31,12.33,14.15,17.74-.16,5.56-12.48,12.26-17.54,9.37-12.76-7.28-26.24-12.06-41-13.32-22.89-1.94-44.05,4.15-64.64,13.23-2,.88-4,1.77-6,2.66l-1-1.59c2.22-1.93,4.14-4.52,6.71-5.7,30.07-13.84,60.83-25.13,94.7-23.87A126.7,126.7,0,0,1,422.93,543.56Zm-3.84-6.69a126.79,126.79,0,0,0-50.4,3.12c-15.69,4-31,9.38-46.36,14.09C341.21,528.8,397.5,518.06,419.08,536.87Zm-51.62-73.61c-1.65,6.52-3.09,13.19-5.64,19.37-2.41,5.83-6.16,11.1-9.31,16.61l-3-1.24c-1.31-42.75,2-84.59,24.42-122.65l1.84,0a60.73,60.73,0,0,1,1.23,7.35C378.32,410.1,374.16,436.84,367.46,463.26Zm16-3.11c-2.15,5.76-6.79,10.59-10.28,15.84l-2-1c1.42-5.87,2.82-11.75,4.27-17.61,5.68-23.09,9-46.45,8.06-70.29a138.41,138.41,0,0,0-1.65-14.57c-1.08-7.3-.55-8.69,7.17-14.1,1.76,8.45,4.29,16.22,4.88,24.14C395.86,409.06,392.78,435.14,383.42,460.15Zm198,58c-24.62-23.51-45.18-50.26-74.76-66.93C545,455.45,584.43,493.11,581.4,518.18Zm-122-77.6-38.49,7.94C426.83,439.68,439.62,437.26,459.4,440.57ZM809.14,189.12l1.13,2c-10.84,5.68-21.41,12-32.59,16.89-20.36,9-41.27,16.82-58.51,31.43-7,5.91-13.19,12.72-20,18.87-1.83,1.66-4.49,2.41-6.77,3.58l-1-2C722.12,222.07,762,199.5,809.14,189.12Zm-194,54.76C628,231.49,640.83,219,653.92,206.73c1.71-1.6,4.8-1.7,7.26-2.5-.52,2.7-.15,6.17-1.7,8-7.68,9-15.66,17.7-24,26.1-8.85,9-18.17,17.45-27.64,26.49C606.71,256.16,609.26,249.45,615.09,243.87Zm-13.8,17.87,1.77.64c-1.92,5.5-2.78,11.72-5.94,16.38-12.06,17.77-23.52,35.8-31.74,55.73a22.55,22.55,0,0,1-2.57,3.82l-1.53-1A305.73,305.73,0,0,1,601.29,261.74Zm-43.06,97.42a4.45,4.45,0,0,1,3.79.95c4.16,4.12,8.08,8.47,12.65,13.34L543.52,367l-.41-1.83C548.14,363.12,553.12,361,558.23,359.16Zm-79.09-85.94c8.24,39.61-8.26,71.92-23.5,104.51C450.59,340.65,453.15,305.26,479.14,273.22ZM459,395.22l-2.08-.39c.86-3.29,1.33-6.74,2.63-9.85,6.94-16.54,14.79-32.74,21-49.55,6.68-18.16,11.4-37.69,5.64-56.39-4.79-15.55,4.55-25.28,8.76-37.45,5.21,11.08,6.3,22.78,5.45,34.5C497.31,319,480.51,357.4,459.91,394.4A3.93,3.93,0,0,1,459,395.22Zm93.18,44.34c-19.47-10.76-39.85-18.91-62.15-21.06-8-.77-16.21-.12-24.31-.56,45.06-23.14,143.16-.29,165.44,38.64A137.49,137.49,0,0,1,552.21,439.55Zm104.11,12.2c-12.63,5.57-15.13,5.13-23.12-3.09-25.41-26.14-56.68-40-92.54-44.33-22.57-2.75-44.79-.82-66.84,4.24-1.16.27-2.34.42-3.51.62l-.93-1.83c6.62-3.41,12.9-8.56,19.91-9.93a138.59,138.59,0,0,1,84.45,9.43c19.82,8.81,39.69,17.18,61.13,21.37a15,15,0,0,1,7.92,5C647.5,438.93,651.59,445.18,656.32,451.75ZM554.47,390.55c15.46-1.49,58.11,14.54,70.82,28.62-12.06-4.68-24.18-9.23-36.17-14.08S565.15,395,554.47,390.55Zm101.23,20.79c6.64,1.23,13,4.22,19.3,6.94,4.45,1.93,8.5,4.77,12.73,7.2l-.35,2.45c-14.9-1.76-29.81-3.4-44.68-5.4a12.26,12.26,0,0,1-6.27-3.49c-23.13-22.54-51.74-32.75-83-36.72-12.1-1.54-24.33-2.09-37.25-3.15,6.82-5,13.25-8.9,21.88-6.91,9.14,2.11,18.35,3.95,27.56,5.73a112.78,112.78,0,0,1,39.09,15C620.27,402.76,637.66,408,655.71,411.34ZM606.8,381.65c-18.43-1.57-30.23-12.13-41.6-24.53,7.71-5,9-5,13.67,1.13A77.17,77.17,0,0,0,606.8,381.65Zm-3.94-84c-5.66,10.09-10.22,20.79-15.6,31-1,1.94-3.71,3-5.63,4.47l-1.32-1.59c2.67-5,5.6-9.92,7.95-15.09,5-11,8.88-22.45,14.65-32.95,4.35-7.92,10.58-14.9,16.57-21.78,4.67-5.37,10.36-9.83,15.41-14.88,10.2-10.2,20.28-20.52,30.63-31,2.12,3.4,2.31,6.44-1.1,10.2-14.67,16.14-29,32.58-43.54,48.87-1.48,1.66-3.59,2.81-4.92,4.56C611.42,285.4,606.48,291.15,602.85,297.61Zm63.84,57.27a33.56,33.56,0,0,1-9.35,2.88,35.32,35.32,0,0,1-18.89-2.65c-17-7.19-27.28-32.45-22.46-49.84a28.31,28.31,0,0,1,9.55-14.92c21.14-16.85,61.13,1,61.9,28.14C687.87,333.23,680.36,348.39,666.7,354.88Zm23.95,8.41,38.88-7.07C717.63,361.1,705.64,365.46,690.65,363.3Zm98.39-20a63.79,63.79,0,0,1,41.4,3.89,34.26,34.26,0,0,1,9.05,6.07c-36.72-9.47-71.36,1.8-106.29,9.74l-.68-2.29C751.33,354.75,769.9,347.82,789,343.25Zm22.27-25.63c-37.68,17.82-74.9,33.13-115.11,40l-.67-1.46c2.6-.86,5.15-2,7.82-2.52C734.6,348.12,763,335.58,789.21,318,796.22,313.32,802.69,313.27,811.3,317.62Zm-37.47-.84c4.22-2.43,9.42-3.14,14.16-4.65l.7,2.4c-25,14.44-50.48,27.69-79,34l-1-1.83c2.4-1.34,4.64-3.2,7.21-3.94C736.47,336.78,755.39,327.39,773.83,316.77Zm20.34-45.62c2.31-1.18,5.25-1.13,8.12-.83a206.17,206.17,0,0,1-61.72,28.85C758.53,289.75,776.29,280.33,794.17,271.15Zm-16.74,3.28c-12.33,6.72-24.77,13.15-39.07,17.31C739.8,286,761.28,276.86,777.43,274.44ZM739.23,306c20.71-6.85,40-16.49,58.32-28,3.28-2.06,6.27-4.64,9.71-6.37a24.88,24.88,0,0,1,10.88-2.55A232.94,232.94,0,0,1,739.23,306Z"/><path d="M631.8,323l-.6-.38c-7.7-5.27-5.28-16.21,1.87-20.77a20.52,20.52,0,0,1,10.77-2.94,23.89,23.89,0,0,1,21.41,12.62c4.39,7.9,4.1,18.51-1.1,26-3.73,5.35-11,8.92-17.59,8-7.38-1-12.19-9-8.87-16,.68-1.43,5.2-6,.84-5.53C635.78,324.31,634.21,324.49,631.8,323Z"/></svg>