<?xml version="1.0" encoding="UTF-8"?>
<!DOCTYPE svg  PUBLIC '-//W3C//DTD SVG 1.1//EN'  'http://www.w3.org/Graphics/SVG/1.1/DTD/svg11.dtd'>
<svg enable-background="new 0 0 1190.33 1690.455" version="1.1" viewBox="0 0 1190.33 1690.455" xml:space="preserve" xmlns="http://www.w3.org/2000/svg">
		<path d="m167.46 49.509c5.057-0.199 9.67-2.887 14.634-3.875 9.392-1.869 13.492 6.188 18.626 12.402-5.686 6.065-11.419 12.13-16.868 18.384 8.387-0.758 16.773-1.706 25.16-2.464 1.611 5.354 3.222 10.756 4.786 16.157-11.798 5.259-23.549 11.182-32.362 20.99 39.28 11.751 66.762 47.904 72.069 87.894 5.259 49.562 8.245 99.835 3.269 149.59-9.145 63.777-30.088 128.22-17.389 193.04 10.472 19.901 30.799 32.599 48.046 46.34 30.609 16.347 63.729 28.287 97.229 37.479-18.906-29.661-41.649-58.138-71.216-77.802-8.624-7.013-20.043-5.686-30.372-5.449-1.99 10.14-3.98 20.28-6.302 30.372-7.249-5.307-14.404-10.756-21.512-16.3 9.003-23.454 27.956-45.061 54.348-47.619 23.739-5.591 38.854 17.674 54.442 31.272 31.604 37.764 60.744 77.66 91.59 116.09-5.449 7.581-10.993 15.115-16.3 22.791 12.272-1.137 24.497-2.843 36.674-4.833-9.998-22.602-28.809-40.986-34.542-65.435-5.591-20.754 16.157-46.34 37.859-38.096 33.073 8.955 65.104 22.033 94.86 39.043 12.509 7.155 24.544 15.684 38.664 19.474 15.21 0.521 29.804-5.307 44.208-9.524-0.237-14.215 6.539-27.292 17.342-36.342 21.701-5.544 40.038 25.966 25.444 42.36-24.686 5.449-50.131 7.013-74.864 12.509 11.893 7.25 24.212 13.599 36.484 20.09-7.344 12.509-12.414 28.998-27.103 34.684-17.531 5.354-36.105 2.511-54.063 2.369-0.332 29.14-4.312 63.824 18.574 86.236 12.462 1.99 25.634-5.781 29.472-17.911 15.352-47.146 47.098-90.974 92.87-112.34-1.516 14.404-0.332 30.609-10.282 42.502-13.836 19.664-31.036 41.175-27.387 66.857 0.853 16.489 19.332 22.933 33.357 22.886 19.522 1.564 35.869-13.504 43.876-29.993 8.671-23.312 5.023-48.614 4.359-72.827-1.137-16.205 9.761-29.33 18.053-42.028 20.564 25.492 9.287 58.659 4.17 87.373-2.653 21.891-8.008 47.288 6.728 66.241 5.923 11.087 18.906 13.551 29.993 16.442 19.569-35.3 6.112-77.281 2.89-115.04-4.691-18.432 11.94-30.988 22.649-43.213 3.696 16.868 8.387 33.405 13.741 49.799-3.412 1.279-10.14 3.885-13.551 5.212 3.791 36.958 7.155 75.48-5.733 111.16-6.491 18.763-30.04 30.277-48.472 21.512-20.943-5.638-29.472-27.008-37.432-44.871-16.252 11.561-34.258 26.155-55.627 21.038-24.402 0.047-41.791-24.781-38.711-47.714 2.511-18.147 7.534-35.821 10.045-53.921-10.519 12.272-21.512 25.113-25.729 41.175-6.207 20.422-9.24 47.24-31.462 56.812-16.205 0.427-30.941-11.04-38.238-25.018-13.504-28.714-11.609-61.455-7.013-92.017-21.417-1.611-42.976-0.805-64.156 2.796 15.447 1.895 33.973-1.895 45.961 10.424 12.556 13.267 9.666 33.073 8.861 49.752-2.985 36.721-33.073 64.582-65.198 78.56-29.614 13.172-62.592 12.509-94.054 17.532 30.988 15.968 65.34 23.312 98.556 33.168 39.043 7.581 77.66 18.432 117.56 20.517 11.135 1.611 25.918-1.09 30.893 11.846 4.312 10.424 16.11 10.472 25.634 11.703-0.237-6.634-0.474-13.22-0.711-19.806 13.172 1.516 29.851-1.658 39.043 10.282 19.853 19.853 10.045 54.016-9.761 70.031-13.409 9.24-29.14 0.237-42.786-3.648-4.407-14.878-9.24-29.614-13.694-44.445-55.295-3.933-111.21-7.06-164.7-22.791-54.206-12.935-106.9-32.268-156.69-57.238-62.829-34.021-112.86-88.795-146.79-151.2-16.584-35.11-26.582-72.969-31.794-111.4-3.601-25.492 4.691-50.51 6.634-75.812 2.701-35.016 13.314-68.799 16.963-103.72 9.856-62.403 9.666-125.94 2.843-188.68 9.097-2.653 18.147-5.639 27.15-8.624 13.93 80.124 1.801 161.43-12.841 240.47-3.364 36.721-10.945 73.111-10.235 110.12-2.322 34.352 10.472 67.046 21.417 98.887 7.865 21.796-5.97 48.378 13.741 65.956-2.843-14.831-12.983-29.898-6.728-45.108 11.135-30.846 39.564-50.889 68.941-62.734-11.94-13.03-10.187-32.457-21.891-45.44-7.249 2.417-14.167 12.367-22.27 7.297-19.758-9.998-24.449-34.163-26.866-54.111 0.995-37.764 7.96-75.101 15.731-111.96 9.571-42.597 11.751-86.378 14.357-129.83-0.142-27.577-4.549-55.011-9.524-82.066-2.653-15.826-12.793-28.666-22.27-41.033 0.758 13.694 3.364 28.429-3.838 40.986-4.217 13.883-23.928 9.24-33.689 3.885-19.19-14.736-22.601-40.749-20.706-63.35-41.697 6.018-72.827 37.906-112.3 49.988 16.773-24.971 44.255-38.617 68.373-55.106 15.778-9.761 30.609-22.507 49.183-26.439 12.699-1.611 23.596 7.013 34.258 12.604-9.524-10.377-12.841-24.118-16.157-37.385-13.22-4.122-19.095-14.925-15.778-28.287 8.387 0.663 16.773 1.469 25.16 2.227-3.222-7.439-6.539-14.878-9.713-22.365m5.115 122.25c2.417 8.055 6.539 15.399 12.746 21.133-3.222-7.629-7.439-14.784-12.746-21.133m298.37 431.08c12.983 21.37 27.055 42.313 35.726 65.909 29.188-3.98 58.659-4.549 88.037-5.496-40.038-22.649-81.83-41.744-123.76-60.413m-250.7 92.633c-3.601 13.788 7.629 25.681 19.711 30.135 23.928 9.856 49.799 0.711 72.969-6.965-5.449-7.013-10.851-14.073-16.157-21.133 7.25-6.728 14.594-13.362 21.985-19.948 11.751 8.15 20.801 19.616 17.295 34.731 34.447-11.277 69.937-19.995 102.87-35.395-33.31-8.245-65.814-19.285-98.887-28.335-16.726-4.407-32.078-13.267-49.325-15.684-31.367 8.767-56.67 33.596-70.458 62.594m175.17 24.544c11.04 3.601 26.013 0.474 34.115 10.282 3.696 11.988 0.948 24.828 1.185 37.195 22.175 4.738 40.702-13.267 50.841-30.893 0.569-13.125-9.097-24.686-12.935-37.006-24.591 5.923-49.894 10.093-73.206 20.422m-89.363 31.699c-25.492 9.429-52.974 6.16-78.939 0.805 17.626 8.055 33.168 19.522 48.425 31.225 27.577 17.674 54.49 36.911 84.862 49.467-7.202-21.322-11.135-44.066-3.696-65.956-12.604 18.669-36.248 22.649-57.143 23.881-15.115 0.569-25.492-12.272-35.537-21.606 32.931-0.19 67.615 1.232 97.797-14.167 13.409-9.05 22.791-22.696 33.547-34.589-31.036 6.491-59.702 20.279-89.316 30.94m208.58-22.27c-5.259 8.576 12.935 15.92 15.636 6.397-0.189-6.871-10.566-10.709-15.636-6.397m-132.01 17.011c-7.676 18.195-19.143 43.26 0.426 58.328 24.165 13.93 54.774 11.419 81.261 5.97 26.25-5.781 53.447-9.95 77.186-23.359-17.721-14.926-39.28-23.644-61.36-29.851-6.918 11.372-12.888 23.739-22.696 32.978-10.092 7.913-24.449 8.529-36.342 4.738-11.419-5.307-12.319-19.569-16.963-29.756-1.943-10.851-13.457-13.979-21.512-19.048m298.6 196.16c-0.142 3.838-0.379 11.514-0.521 15.305 6.302 0 12.604-0.047 18.953-0.142-5.876-5.355-12.035-10.425-18.432-15.163z"/>
		<path d="m412.04 498.55c19.948-8.102 46.672 2.985 51.884 24.355-13.788 24.734-45.866 29.377-70.6 20.043 8.718-6.444 17.674-12.509 26.345-19.048-11.703 0.616-23.312 1.753-34.968 2.701 7.485-10.614 12.792-25.824 27.339-28.051z"/>
		<path d="m293.73 566.92c8.813-1.564 18.195-6.728 27.055-3.08 7.013 5.781 8.718 15.541 12.793 23.312-8.908 0.758-17.911 1.895-26.818 0.758-8.908-2.984-9.761-13.598-13.03-20.99z"/>
		<path d="m247.67 590.8c2.748 1.09 8.292 3.222 11.04 4.312 1.327 15.731-7.534 29.282-18.242 39.849 1.232-14.879 3.364-29.709 7.202-44.161z"/>
		<path d="m500.79 642.17c11.277-4.549 24.212-7.013 34.494 1.327 2.227 10.282-10.803 11.561-17.674 14.499-8.102-1.138-11.276-10.756-16.82-15.826z"/>
		<path d="m269.47 657.28c8.292-4.501 16.442-9.429 25.444-12.367 11.703 3.127 15.541 16.11 22.08 24.923-8.576 7.439-17.105 14.925-25.871 22.128-7.202-11.609-14.641-23.028-21.653-34.684z"/>
		<path d="m244.54 682.44c5.923-7.107 14.31-11.324 21.985-16.252 6.491 10.614 15.731 20.327 18.147 32.883-2.559 11.135-13.646 16.726-21.606 23.691-7.012-12.888-17.863-25.065-18.526-40.322z"/>
		<path d="m885.06 716.94c13.362 19.853 26.25 40.086 36.579 61.739-6.586-2.085-13.078-4.264-19.569-6.491 2.559 25.966 9.334 51.173 15.731 76.381 4.407 20.28 2.748 41.46-0.9 61.692-4.501 21.085-28.429 30.656-47.998 27.198-9.524-5.259-15.352-14.878-21.985-23.123-14.215 5.97-28.24 14.783-43.971 15.02-9.003-4.691-16.205-12.367-25.586-16.394-19.332-2.132-40.275-1.99-56.906-13.694-17.626-10.187-15.684-33.263-20.99-50.273-30.704 11.324-35.442 48.899-28.382 76.807-3.933-0.995-11.846-2.938-15.778-3.933-6.16-23.976-1.516-49.704 8.292-72.021 11.087-15.778 30.183-24.402 48.33-29.377 20.043 4.691 14.783 28.43 19.19 43.355 7.818 15.305 26.913 19.143 42.455 21.701 17.058 3.791 25.018-15.494 36.2-24.639 0.332 6.823 0.189 13.694 1.374 20.422 6.728 9.666 20.422 8.434 30.135 4.691 10.566-6.397 18.1-16.584 26.818-25.16 0.805 9.761 0.711 19.806 3.648 29.282 4.501 10.187 16.584 10.993 26.013 13.315 0.948-53.116-25.065-102.68-24.07-155.94 2.272-10.661 7.247-20.517 11.37-30.562z"/>
		<path d="m703.35 740.91c3.222-8.102 8.908-14.641 15.968-19.616 0.853 6.539 1.706 13.125 2.511 19.758-4.643-0.047-13.883-0.095-18.479-0.142z"/>
		<path d="m717.09 771.14c4.075-17.389 11.324-41.128 33.452-40.37-9.524 14.688-20.848 28.24-33.452 40.37z"/>
		<path d="m799.3 739.78c6.349 0.095 12.651 0.237 19 0.426 0.995 10.235 1.658 20.517 2.132 30.799-7.534-2.132-16.063-2.464-22.412-7.439-4.974-7.392 0.191-16.063 1.28-23.786z"/>
		<path d="m927.7 784.69c24.828 7.534 46.293 22.554 64.345 40.986-3.933 1.374-11.751 4.17-15.684 5.591 25.207 22.696 51.126 45.013 72.163 71.784 25.397 32.883 54.869 62.734 77.044 98.034 14.073 28.145 27.766 57.38 32.741 88.747-17.958-17.531-26.392-41.649-40.796-61.692-49.562-66.572-107.23-126.42-166.12-184.7-7.96-7.96-17.058-15.115-22.981-24.828-4.405-10.802-1.515-22.743-0.709-33.925z"/>
		<path d="m511.64 855.06c8.102-10.377 12.983-28.477 28.856-27.908 7.676 7.771 13.788 17.863 15.21 28.809 2.085 16.584-18.384 19.901-28.856 27.387-4.928-9.524-9.951-19.001-15.21-28.288z"/>
		<path d="m600.96 830.09c17.721-6.302 35.253 3.933 50.178 12.556-8.766 12.841-17.674 26.818-32.031 33.973-15.731 2.985-31.936-0.569-47.43-3.412 10.566-7.392 23.075-10.898 35.11-15.162-11.277-1.564-22.602-2.796-33.831-4.264 8.815-8.433 17.391-17.436 28.004-23.691z"/>
		<path d="m812.33 869.13c4.501-4.028 9.05-8.008 13.599-11.988 6.397 4.406 12.746 8.86 19.142 13.409-6.586 7.25-14.499 13.078-23.312 17.295-3.175-6.255-6.302-12.509-9.429-18.716z"/>
		<path d="m926.95 866.52c20.422 8.813 41.697 17.911 57.664 33.926 9.334 9.145 9.808 23.644 18.763 33.12 15.305 16.299 31.036 32.173 44.871 49.799 32.978 37.385 66.525 75.622 87.042 121.63 4.928 11.135 6.254 23.36 8.008 35.347-30.183-40.749-61.976-80.266-96.139-117.74-31.509-40.891-69.226-76.238-104.15-114.1-11.324-10.993-13.267-27.293-16.062-41.981z"/>
		<path d="m914.15 927.17c25.16 9.619 49.515 22.554 68.041 42.502-3.601 1.706-10.756 5.117-14.357 6.823 45.203 51.789 98.65 96.897 136.79 154.66 12.983 27.861 24.213 56.812 30.656 86.994-10.993-11.419-19.379-24.923-26.866-38.806-26.25-46.34-65.909-82.588-100.4-122.48-24.497-24.449-48.425-49.515-73.064-73.822-7.107-7.486-14.357-15.115-19.048-24.402-2.226-10.328-1.515-20.942-1.752-31.461z"/>
		<path d="m781.81 977.82c0.284-11.23 9.903-20.138 16.679-28.477 16.868-6.16 30.04 8.908 40.796 19.474-8.434 10.898-17.484 21.322-27.245 30.988-10.282-7.012-21.085-13.504-30.23-21.985z"/>
		<path d="m700.41 1035.6c2.748-15.21 6.681-30.325 14.783-43.639 10.14 18.053 21.085 36.011 27.577 55.817 3.885 12.177-9.713 22.412-5.97 34.873 20.09 101.4 49.183 200.71 72.637 301.35 8.292 33.073 5.259 67.994-4.643 100.36-2.796 11.846-15.731 16.063-24.497 22.602 2.369 35.063-18.053 66.714-45.013 87.373-35.489 28.145-77.802 57.048-125.56 49.704-22.08-0.758-33.31-22.27-45.298-37.622-18.384 3.175-37.006 4.359-55.627 5.496-20.185 1.279-39.517 7.913-59.56 10.14 8.624-8.055 18.432-14.831 29.614-18.669 29.472-11.087 58.896-22.27 88.321-33.594 4.833-38.285 13.078-79.318 41.081-107.94-10.519 32.362-25.397 63.919-26.676 98.603 27.292-8.813 50.51-25.918 75.054-40.085 12.699-8.197 27.34-15.921 33.831-30.372-1.943-20.469-17.295-36.579-20.327-56.575 1.753-9.524 7.297-17.768 11.609-26.25 12.462 10.187 26.203 19.379 42.549 21.511 11.467-37.574-5.449-75.67-8.955-113.2-15.02-76.807-26.771-154.18-42.028-230.94-2.796-19.474-6.112-39.043-5.591-58.754-0.569-11.609 9.24-19.474 15.542-27.956 5.778 12.557 11.37 25.208 17.15 37.765m-1.042 26.534c-0.711 18.716 3.032 37.148 6.586 55.39 8.86 43.071 16.584 86.378 26.06 129.35 9.05 53.211 22.601 105.8 26.013 159.87 1.706 16.868-11.135 29.993-15.494 45.393 7.913 12.698 28.903 26.345 40.465 10.235 10.235-16.489 7.723-38.096 3.933-56.385-25.729-104.67-49.325-209.86-75.243-314.52-2.228-10.472-6.397-20.422-12.32-29.33m9.287 401.99c0.284 22.554 3.459 49.088-12.793 67.188-30.846 28.24-69.889 44.776-104.76 67.188 18.763 10.566 40.749 10.803 60.507 2.89 34.021-12.177 72.021-22.933 95.191-52.737 13.409-16.11 1.469-37.479-7.96-52.405-8.245-10.756-9.334-24.307-9.524-37.337-6.87 1.801-13.788 3.507-20.658 5.213z"/>
	<path d="m773.38 617.76c-22.008-1.511-27.738-7.253-25.928-25.302 0.333-3.317 0.399-6.63 3.849-7.427 3.207-0.741 5.784 1.27 7.357 4.437 1.759 3.543-1.366 10.871 6.451 9.389 1.051-0.199 1.148-6.965 1.157-10.691 9e-3 -3.622-2.22-8.785 3.792-8.552 4.662 0.181 5.205 4.862 4.809 9.079-0.452 4.815-0.149 10.372 5.988 10.132 5.31-0.207 3.292-6.029 4.086-9.542 0.62-2.743-0.559-6.916 4.132-6.716 3.497 0.149 4.909 3.07 5.982 6.234 7.463 22.01 1.132 30.524-21.675 28.959z"/>
</svg>
