<?xml version="1.0" encoding="UTF-8"?>
<svg enable-background="new 0 0 1858.875 1719.628" version="1.1" viewBox="0 0 1858.875 1719.628" xml:space="preserve" xmlns="http://www.w3.org/2000/svg">
<path d="m147.48 59.837c17.026 11.111 155.06 130.45 137.79 255.92-16.23 106.24-111.86 238.92-48.351 341.49 11.418 18.488 19.75 28.967 37.416 28.222 44.255 1.681 142.29-61.329 260.4-89.654 14.004-3.761 18.445-1.637 23.115-12.401 24.17-51.458 109.15-81.341 165.77-93.374 4.674-1.232 19.707-2.104 14.394-11.294-3.218-4.474-9.467-6.814-48.517-21.275 126.73-3.581 234.16 67.278 240.13 68.952 5.234-1.708 112.22-71.651 237.47-69.052l1.227-0.907c-0.28 0.587-0.833 1.747-1.113 2.334-4.579 0.582-30.845 11.139-35.969 13.268-6.109 2.678-12.603 5.495-10.127 12.334 2.737 5.954 11.183 2.631 55.478 16.408 30.856 8.171 100.5 36.221 123.58 80.606 10.4 19.836 0.386 1.366 103.23 38.623 68.824 24.935 125.52 55.575 165.59 63.732 31.915 6.219 37.679-5.396 47.044-17.708 66.216-91.118-4.555-207.7-37.516-325.86-8.588-40.036-9.599-68.892 6.667-114.98 28.894-77.759 101.15-148.86 126.21-165.29-5.053 13.451-64.439 137.03-39.796 248.92 25.692 118.72 161.54 250.04 111.92 438.36-59.064 224.32-400.67 149.06-412.77 153.59-0.867 0.387-2.16 0.667-1.953 1.893-0.533 1.9 0.933 3.314 2.354 4.32 9.862 7.506 204.1 90.128 210.54 94.908-3.796 6.181-125.93 62.302-226.3 34.563-3.42-0.9-6.707-2.333-10.201-2.854-13.298 4.087-4.443 5.937 19.842 74.353 31.362 95.621 44.881 208.72-49.991 240.62-105.68 36.24-147.09 133.89-198.5 148.15-4.587 1.2-8.634 5.454-8.481 10.367-0.16 13.541 5.452 77.522-35.843 117.2-16.655 16.895-39.496 26.355-62.572 30.402-3.36 0.42-5.947 2.714-8.114 5.134h-133.53c-12.566-8.099-119.36-5.826-117.26-138.01-0.028-20.126 4.295-20.281-12.481-26.409-49.952-17.807-86.345-108.64-198.92-148.48-106.18-40.607-69.013-191.2-23.109-295.82 2.12-4.3 4.207-9.154 2.794-14.001-3.033-5.102-16.339-0.444-18.055 7e-3 -41.355 10.743-86.369 8.705-128.42-0.593-46.429-8.579-95.694-33.854-96.694-34.296 176.8-79.832 209.57-88.888 207.57-98.055-7.465-5.404-47.423 4.651-114.4 5.274-279.01-2.808-293.43-136.2-304.15-235.02-12.935-236.17 219.46-292.49 87.56-602.91-1.654-3.89-3.541-7.684-4.947-11.67z"/>
</svg>
